<?xml version="1.0" encoding="UTF-8"?>
<svg id="uuid-d803143c-f53a-4f3b-906f-b00fcf38e666" data-name="Layer 1" xmlns="http://www.w3.org/2000/svg" viewBox="0 0 777 777">
  <path d="M481.52,675.45c29.93-25.22,61.98-47.92,93-71.86,29.48-22.75,59.53-44.82,88.03-68.75,26.49-22.24,47.29-49.55,60.54-81.87,16.24-39.59,17.54-80.38,8.25-121.75-8.58-38.24-26.23-71.76-52.76-100.65-3.73-4.06-6.48-4.84-10.32-.22-10.34,12.41-23.26,21.67-37.23,29.57-6.22,3.52-6.42,4.32-1.71,9.36,18.57,19.9,31.86,42.93,39.14,69.06,19.05,68.41,5.4,128.55-49.45,175.58-29.85,25.6-62.42,48.04-93.89,71.74-44.77,33.71-88.94,68.11-127.55,109.01-2.63,2.79-4.77,6.06-7.36,9.39-2.9-2.67-4.37-3.88-5.67-5.26-37.86-40.08-80.51-74.63-124.45-107.67-30.29-22.77-61.25-44.68-91.09-68.02-37.41-29.26-62.06-66.25-66.5-115.07-4.08-44.83,6.74-85.38,32.51-122.04,5.28-7.51,11.38-14.44,17.5-22.14-2.16-1.46-3.97-2.52-5.62-3.8-12.02-9.34-24.31-18.36-35.88-28.23-6.95-5.93-6.57-6.65-12.94.35-30.61,33.66-49.17,73.15-55.23,118.13-6.59,48.91,2.08,94.83,29.96,136.28,21.44,31.89,49.64,57.12,80.16,79.9,39.17,29.24,79.09,57.52,117.69,87.5,44.08,34.25,83.6,73.19,114.39,120.26.6.91,1.37,1.71,2.37,2.74.37,0,.73,0,1.1,0,.69,0,1.38,0,2.07-.01,1.03-1.31,1.86-2.35,2.58-3.45,24.31-37.33,54.55-69.58,88.37-98.08Z" style="fill: #b51749; stroke-width: 0px;"/>
  <path d="M346.58,467.86c-28.51-48.36-67.52-85.39-117.59-111.49-.13,31.18,6.8,59.72,29.33,82.44,24.27,24.47,55.12,29.89,88.25,29.05Z" style="fill: #000; stroke-width: 0px;"/>
  <path d="M389.03,158.18c-8.6,8.4-17.52,16.5-26.55,24.43-4.61,4.04-9.76,7.47-14.97,11.41,1.26,1.43,1.82,2.39,2.64,2.93,13.57,9.06,27.11,18.17,40.88,26.93,1.56.99,4.97.68,6.66-.39,13.41-8.52,26.61-17.35,39.85-26.13,1.01-.67,1.82-1.65,4-3.68-1.84-1.12-3.44-1.81-4.71-2.9-12.69-10.91-25.56-21.65-37.86-32.99-4.2-3.87-6.32-3.13-9.93.4Z" style="fill: #b51749; stroke-width: 0px;"/>
  <path d="M591.68,57.31c.25.48.49.96.72,1.45,4.36,9.54,10.03,18.74,12.72,28.73,9.05,33.62-5.55,64.21-37.81,76.9-40.3,15.86-78.99,11.32-114.64-13.96-21.82-15.47-38.09-35.99-52-58.54-3.77-6.11-7.4-12.31-11.67-19.41-2.06,3.23-3.51,5.29-4.74,7.48-11.45,20.38-24.82,39.29-41.65,55.67-31.91,31.05-69.49,43.73-113.5,34.72-21.12-4.32-40.12-13.11-50.63-33.25-14.06-26.94-9.26-52.89,6.43-77.67.59-.93,1.12-1.9,1.66-2.91-31.28,19.07-59.66,42.44-84.31,69.28-9.38,22.7-10.16,46.18,1.39,70.18,11.33,23.54,29.97,40,52.52,52.65,6.84,3.83,11.56,3.06,17.9-1.38,32.57-22.81,68.91-31,107.98-24.13,43.04,7.56,76.58,30.7,102.15,65.81,1.32,1.82,2.96,3.4,4.93,5.63,1.8-2.36,2.93-4.17,4.37-5.67,12.08-12.49,22.98-26.52,36.6-37.03,30.62-23.63,65.9-33.87,104.8-30.19,25.66,2.43,49.03,11.2,69.87,26.23,5.72,4.13,10.18,4.49,16.23,1.04,14.34-8.18,27.7-17.5,38.39-30.19,19.09-22.68,28.03-48.25,20.79-77.91-1.16-4.76-2.57-9.33-4.21-13.7-24.61-27.05-52.98-50.61-84.29-69.86ZM394.27,246.59c-23.25-23.28-50.41-39.29-80.93-49.34,15.36-10.11,30.47-18.88,44.21-29.43,13.61-10.45,25.84-22.69,39.28-34.67,19.31,25.26,45.28,47.93,78.25,62.9-30.09,11.75-57.97,26.44-80.81,50.55Z" style="fill: #b51749; stroke-width: 0px;"/>
  <path d="M527.38,440.52c22.54-21.32,34.66-53.19,31.97-84.1-25.97,10.59-47.7,28.93-67.54,48.34-9.51,9.3-19.18,18.72-27.92,28.75-2.49,2.85-22.34,34.23-22.26,34.25.02,0,.04,0,.07,0,30.69,4.37,63.15-5.95,85.68-27.25Z" style="fill: #000; stroke-width: 0px;"/>
  <path d="M696.57,151.78c.19,2.13.33,4.29.41,6.46.59,16.75-3.56,32.51-11.47,47.15-3.04,5.63-2.66,9.19,1.91,13.99,34.98,36.77,55.12,80.64,61.75,130.89,6.51,49.37-1.93,95.57-28.2,138.24-17.16,27.86-39.01,51.66-64.75,71.44-42.5,32.67-86.09,63.91-128.86,96.22-42.65,32.21-80.98,68.97-112.91,111.98-2,2.7-3.89,5.49-5.7,8.33,205.15-10.53,368.25-180.21,368.25-387.98,0-89.09-29.99-171.18-80.43-236.72Z" style="fill: #b51749; stroke-width: 0px;"/>
  <path d="M294.53,692.9c-31.27-29.18-66.31-53.54-100.87-78.5-34.21-24.7-69.08-48.6-99.01-78.65-32.3-32.42-56.14-69.73-64.34-115.52-8.82-49.19-2.24-96.45,19.2-141.6,10.71-22.56,24.6-42.94,42.25-60.67,3.07-3.08,4.16-5.77,1.87-10.15-10.14-19.42-14.06-38.42-12.52-56.9C30.26,216.59,0,299.01,0,388.5c0,208.07,163.58,377.94,369.15,388.02-20.75-31.5-47.19-58.02-74.62-83.62Z" style="fill: #b51749; stroke-width: 0px;"/>
  <path d="M125.84,445.65c10.94,30.27,33.2,52.1,57.98,71.22,26.25,20.26,53.26,39.52,79.9,59.27,42.08,31.18,83.18,63.53,119.67,101.31,4.21,4.36,7,3.87,11.05-.26,33.57-34.21,70.65-64.31,108.93-93.05,36.14-27.14,72.69-53.82,107.71-82.35,30.28-24.68,47.71-57.45,50.3-97,2.4-36.68-5.66-71.04-24.96-102.51-31.82-51.9-89.44-76.84-147.62-62.87-40.37,9.69-70.28,34.3-91.32,69.86-2.71,4.59-5.15,9.33-7.9,14.33-1.28-.94-1.75-1.12-1.95-1.45-1.32-2.22-2.58-4.48-3.85-6.73-9.9-17.58-21.69-33.68-37.38-46.58-35.32-29.04-75.39-39.94-120.14-29.35-40.02,9.47-69.16,33.97-88.71,69.66-23.9,43.63-28.77,89.41-11.74,136.52ZM214.08,340.11c.18-1.49.41-2.99.72-4.46.13-.6.54-1.14,1.34-2.76,43.16,18.42,79.2,46.28,110.05,81.13,30.77,34.76,52.68,74.7,67.89,119.42,30.8-92.7,89.44-159.66,179.21-201.69.71,8.67,1.81,15.25,1.7,21.8-.5,29.85-6.91,58-24.4,82.96-16.79,23.96-40.43,37.18-68.34,42.72-14.03,2.78-28.57,3.21-42.92,3.94-5.67.29-8.85,1.85-11.45,7.09-15.29,30.8-24.32,63.43-29.44,97.29-.77,5.1-1.9,10.15-2.93,15.21-.11.56-.68,1.03-1.96,2.86-1.85-9.65-3.62-18.11-5.07-26.63-5.23-30.74-14.04-60.31-27.79-88.38-2.63-5.38-5.9-7.58-11.97-7.36-22.15.79-43.75-2.08-64.51-10.41-32.67-13.11-53.12-37.31-63.66-70.24-6.49-20.28-9.09-41.17-6.47-62.49Z" style="fill: #b51749; stroke-width: 0px;"/>
  <path d="M237.75,30.56c-1.7,1.36-3.32,2.85-5.12,4.06-15.46,10.41-30.29,21.51-39.31,38.43-8.79,16.48-11.47,33.61-4.89,51.67,6.38,17.54,20.71,25.49,37.16,29.96,37.27,10.14,70.72,2.22,99.91-23.13,27.99-24.3,46.44-55.07,60.13-89.05.86-2.13,1.79-4.22,3.42-8.05,2.19,5.31,3.73,8.97,5.23,12.65,13.4,32.98,31.59,62.81,59.18,85.82,32.95,27.49,70,33.71,109.92,17.52,22.88-9.28,33.4-30.74,28.84-55.12-4.2-22.48-17.07-39.09-35.06-52.28-5.61-4.12-11.34-8.08-17.01-12.12.03-.06.06-.13.08-.19C493.61,10.95,442.33,0,388.5,0s-104.72,10.87-151.19,30.52c.15.02.29.03.44.04Z" style="fill: #b51749; stroke-width: 0px;"/>
</svg>
